<svg width="60" height="60" xmlns="http://www.w3.org/2000/svg">
 <title/>
 <desc/>

 <g>
  <title>background</title>
  <rect fill="none" id="canvas_background" height="62" width="62" y="-1" x="-1"/>
 </g>
 <g>
  <title>Layer 1</title>
  <path stroke="null" fill="#2c666e" id="svg_1" d="m22.509291,59.847339c0,-0.758874 -0.025771,-2.766816 -0.040511,-5.43365c-8.344745,1.929518 -10.105405,-4.282592 -10.105405,-4.282592c-1.364711,-3.690411 -3.331652,-4.672813 -3.331652,-4.672813c-2.72388,-1.982469 0.206281,-1.941294 0.206281,-1.941294c3.011173,0.225501 4.59504,3.292349 4.59504,3.292349c2.675984,4.88066 7.020555,3.47275 8.731496,2.655047c0.272584,-2.064829 1.047929,-3.472739 1.904326,-4.270826c-6.661429,-0.805927 -13.665422,-3.54727 -13.665422,-15.787173c0,-3.486479 1.169481,-6.337628 3.088537,-8.571082c-0.307573,-0.807889 -1.338919,-4.055149 0.294667,-8.453435c0,0 2.519442,-0.858867 8.248974,3.274706c2.392379,-0.707897 4.959697,-1.064773 7.512296,-1.076528c2.547078,0.011755 5.112562,0.368631 7.510462,1.076528c5.725854,-4.133573 8.24162,-3.274706 8.24162,-3.274706c1.637274,4.396334 0.607751,7.643583 0.298345,8.453435c1.922743,2.233454 3.083006,5.084604 3.083006,8.571082c0,12.271275 -7.015034,14.971443 -13.698568,15.761668c1.079242,0.986349 2.036921,2.935473 2.036921,5.916035c0,4.270837 -0.038677,7.71613 -0.038677,8.763249c0,0.854963 6.615995,0.557709 15.756174,0.225566c9.140179,-0.332144 6.794095,-15.012543 6.794095,-29.119231c0,-17.642182 2.95031,-31.085269 -13.617638,-31.085269c-8.283052,0 -19.657417,0.028765 -33.65513,-0.046548c-13.997703,-0.075314 -12.709394,9.918651 -12.600312,28.571754c0.109082,18.653103 -2.194202,32.321498 7.350425,31.77238c9.544617,-0.549118 15.100649,0.526498 15.100649,-0.318651z"/>
 </g>
</svg>